<svg width="125" height="125" viewBox="0 0 125 125" fill="none" xmlns="http://www.w3.org/2000/svg">
<g clip-path="url(#clip0_5204_115)">
<path d="M63.0684 15.2879C73.0138 27.8535 78.3227 43.3489 78.1302 59.2491V63.0446L81.4115 65.0317C85.6511 67.586 88.813 71.5478 90.321 76.1951C88.997 75.2249 87.6119 74.3375 86.1739 73.5382L77.4239 68.6486L75.8516 78.517C75.7154 79.3891 75.5329 80.2535 75.3047 81.1069H50.7865C50.4219 79.9906 50.1257 78.8743 49.8523 77.7133L47.8698 68.7826L39.8034 73.2479C38.4558 73.9979 37.1547 74.8255 35.9069 75.7262C37.4443 71.1326 40.5402 67.1931 44.6797 64.5629L47.8015 62.5758V59.0482C47.8578 43.2125 53.2307 27.8349 63.0912 15.2879H63.0684ZM63.0912 6C62.5798 6.00124 62.0861 6.18362 61.7012 6.51351L61.4961 6.69213C48.3565 21.0912 41.0602 39.7105 40.9883 59.0258C35.4125 62.5704 31.2851 67.9221 29.3275 74.1457C27.37 80.3693 27.7066 87.069 30.2787 93.074C32.9882 87.2107 37.5177 82.3351 43.2214 79.1422C43.7934 81.57 44.5552 83.9511 45.5 86.2644C45.6199 86.7091 45.8855 87.1029 46.256 87.3853C46.6265 87.6676 47.0814 87.8229 47.5508 87.8273H79.1784C79.8164 87.8273 80.4545 87.2244 80.7735 86.2867C81.6956 84.0874 82.3385 81.7854 82.6875 79.4324C88.4022 82.6119 92.9353 87.4915 95.6302 93.3643C98.3575 87.3888 98.7798 80.6468 96.8186 74.3894C94.8575 68.132 90.6462 62.7842 84.9662 59.3384C85.1915 39.9092 77.9339 21.1107 64.6407 6.69213C64.4427 6.47527 64.2005 6.30159 63.9296 6.18236C63.6587 6.06313 63.3653 6.001 63.0684 6H63.0912Z" fill="#4EA8DE"/>
<path d="M63.0684 57.1727C61.3182 57.1727 59.6072 56.665 58.151 55.7136C56.6949 54.7622 55.5588 53.4097 54.8859 51.8266C54.2131 50.2435 54.0336 48.5007 54.3701 46.8178C54.7066 45.1349 55.5441 43.5873 56.7769 42.37C58.0097 41.1528 59.5827 40.3204 61.2976 39.9777C63.0125 39.6351 64.7926 39.7975 66.4134 40.4446C68.0342 41.0917 69.4232 42.1945 70.4054 43.6139C71.3875 45.0333 71.9188 46.7058 71.9323 48.4207V48.4207C71.9596 49.532 71.7631 50.6377 71.3541 51.6745C70.9451 52.7114 70.3316 53.6591 69.5486 54.4636C68.7657 55.2681 67.8286 55.9135 66.791 56.363C65.7534 56.8126 64.6355 57.0574 63.5013 57.0834C63.3579 57.106 63.2118 57.106 63.0684 57.0834V57.1727Z" fill="#4EA8DE"/>
<path d="M75.3959 93.3866C74.8258 93.3687 74.2577 93.4626 73.7251 93.6628C73.1925 93.8629 72.706 94.1652 72.2943 94.552C71.8825 94.9389 71.5537 95.4024 71.3272 95.9153C71.1008 96.4283 70.9811 96.9805 70.9753 97.5394V110.712C70.9753 111.861 71.4411 112.963 72.2701 113.775C73.0991 114.587 74.2235 115.043 75.3959 115.043C76.5683 115.043 77.6927 114.587 78.5217 113.775C79.3508 112.963 79.8165 111.861 79.8165 110.712V97.718C79.8347 97.1612 79.7396 96.6064 79.5368 96.086C79.3339 95.5656 79.0274 95.0899 78.635 94.6868C78.2427 94.2836 77.7723 93.9611 77.2514 93.7378C76.7305 93.5146 76.1695 93.3952 75.601 93.3866H75.3959Z" fill="#5E60CE"/>
<path d="M50.7865 93.3866C50.2067 93.3565 49.6266 93.4411 49.0808 93.6352C48.535 93.8293 48.0346 94.129 47.6094 94.5164C47.1843 94.9038 46.843 95.3711 46.6058 95.8905C46.3687 96.4098 46.2407 96.9705 46.2292 97.5394V110.712C46.2292 111.861 46.695 112.963 47.524 113.775C48.353 114.587 49.4774 115.043 50.6498 115.043C51.8222 115.043 52.9466 114.587 53.7756 113.775C54.6047 112.963 55.0704 111.861 55.0704 110.712V97.718C55.0886 97.1612 54.9935 96.6064 54.7907 96.086C54.5878 95.5656 54.2813 95.0899 53.8889 94.6868C53.4966 94.2836 53.0262 93.961 52.5053 93.7378C51.9844 93.5146 51.4234 93.3952 50.8549 93.3866H50.7865Z" fill="#5E60CE"/>
<path d="M62.7494 93.3866C62.1808 93.3747 61.6155 93.4728 61.0855 93.6751C60.5556 93.8774 60.0716 94.18 59.6611 94.5656C59.2506 94.9513 58.9216 95.4124 58.693 95.9226C58.4645 96.4329 58.3407 96.9822 58.3289 97.5393V115.691C58.3289 116.84 58.7946 117.941 59.6236 118.754C60.4526 119.566 61.577 120.022 62.7494 120.022C63.9218 120.022 65.0462 119.566 65.8752 118.754C66.7043 117.941 67.17 116.84 67.17 115.691V97.8296C67.1882 97.2728 67.0931 96.718 66.8903 96.1976C66.6874 95.6772 66.3809 95.2016 65.9885 94.7984C65.5962 94.3953 65.1258 94.0727 64.6049 93.8494C64.084 93.6262 63.523 93.5068 62.9545 93.4982L62.7494 93.3866Z" fill="#5E60CE"/>
</g>
<defs>
<clipPath id="clip0_5204_115">
<rect width="70" height="114" fill="white" transform="translate(28 6)"/>
</clipPath>
</defs>
</svg>
